<svg width="16" height="20" viewBox="0 0 16 20" fill="none" xmlns="http://www.w3.org/2000/svg">
<path d="M1 16.7055C1.00452 16.9676 1.08079 17.2235 1.22052 17.4453C1.36026 17.6671 1.55811 17.8464 1.79258 17.9636C2.02671 18.0959 2.29107 18.1654 2.56 18.1654C2.82892 18.1654 3.09328 18.0959 3.32741 17.9636L14.2096 11.233C14.4464 11.1189 14.6462 10.9403 14.786 10.7178C14.9258 10.4952 15 10.2377 15 9.9749C15 9.71207 14.9258 9.45458 14.786 9.23203C14.6462 9.00948 14.4464 8.83091 14.2096 8.71684L3.32741 2.03653C3.09328 1.90424 2.82892 1.83472 2.56 1.83472C2.29107 1.83472 2.02671 1.90424 1.79258 2.03653C1.55811 2.15377 1.36026 2.33303 1.22052 2.55483C1.08079 2.77663 1.00452 3.03248 1 3.29459V16.7055Z" stroke="white" stroke-width="2" stroke-linecap="round" stroke-linejoin="round"/>
</svg>
