<svg width="22" height="13" viewBox="0 0 22 13" fill="none" xmlns="http://www.w3.org/2000/svg">
<path d="M11 9.69708C12.6812 9.69708 14.044 8.33424 14.044 6.6531C14.044 4.97196 12.6812 3.60913 11 3.60913C9.31889 3.60913 7.95605 4.97196 7.95605 6.6531C7.95605 8.33424 9.31889 9.69708 11 9.69708Z" stroke="white" stroke-linecap="round" stroke-linejoin="round"/>
<path d="M20.8973 6.36609C19.8797 5.21808 15.8356 1 11 1C6.16443 1 2.12029 5.21808 1.10274 6.36609C1.03631 6.44699 1 6.54842 1 6.65309C1 6.75777 1.03631 6.8592 1.10274 6.9401C2.12029 8.08811 6.16443 12.3062 11 12.3062C15.8356 12.3062 19.8797 8.08811 20.8973 6.9401C20.9637 6.8592 21 6.75777 21 6.65309C21 6.54842 20.9637 6.44699 20.8973 6.36609V6.36609Z" stroke="white" stroke-linecap="round" stroke-linejoin="round"/>
</svg>
