<svg width="24" height="18" viewBox="0 0 24 18" fill="none" xmlns="http://www.w3.org/2000/svg">
<path d="M19.7691 1.99512C18.2904 1.33746 16.7509 0.859172 15.1507 0.600098C14.9482 0.958816 14.7253 1.41718 14.5633 1.79583C12.8618 1.53675 11.14 1.53675 9.43854 1.79583C9.25624 1.37732 9.05368 0.978745 8.83086 0.600098C7.23065 0.859172 5.67094 1.33746 4.21252 2.01504C1.29567 6.29974 0.505684 10.4649 0.890546 14.5901C2.6123 15.8456 4.51636 16.8022 6.5622 17.4001C7.02809 16.7823 7.43321 16.1446 7.77756 15.467C7.10911 15.2279 6.48118 14.9289 5.8735 14.5702C6.03555 14.4506 6.17734 14.3311 6.33939 14.2115C9.92469 15.8855 14.0974 15.8855 17.6827 14.2115C17.8447 14.3311 17.9865 14.4506 18.1486 14.5702C17.5409 14.9289 16.8927 15.2279 16.2243 15.467C16.5686 16.1446 16.9737 16.7823 17.4396 17.4001C19.4855 16.7823 21.4098 15.8456 23.1113 14.5901C23.5569 9.80721 22.301 5.66202 19.7691 1.99512ZM8.2637 12.0392C7.14963 12.0392 6.25836 11.0428 6.25836 9.82714C6.25836 8.61148 7.14963 7.59511 8.2637 7.59511C9.39803 7.59511 10.2893 8.59156 10.2893 9.82714C10.269 11.0428 9.39803 12.0392 8.2637 12.0392ZM15.7179 12.0392C14.6038 12.0392 13.7125 11.0428 13.7125 9.82714C13.7125 8.61148 14.6038 7.59511 15.7179 7.59511C16.8522 7.59511 17.7435 8.59156 17.7232 9.82714C17.703 11.0627 16.832 12.0392 15.7179 12.0392Z" fill="white"/>
</svg>
