<svg width="20" height="20" viewBox="0 0 20 20" fill="none" xmlns="http://www.w3.org/2000/svg">
<path d="M10 1.80333C12.67 1.80333 12.9867 1.81333 14.0417 1.86167C16.7533 1.985 18.0167 3.27 18.1417 5.96C18.1883 7.015 18.1983 7.33 18.1983 10C18.1983 12.67 18.1883 12.9867 18.1417 14.04C18.0167 16.7283 16.755 18.0167 14.0417 18.14C12.9867 18.1867 12.6717 18.1983 10 18.1983C7.33 18.1983 7.01333 18.1883 5.96 18.14C3.24333 18.015 1.985 16.725 1.86 14.04C1.81333 12.9867 1.80167 12.67 1.80167 10C1.80167 7.33 1.81333 7.01333 1.86 5.96C1.98333 3.26833 3.24667 1.98333 5.96 1.86C7.01333 1.81167 7.33 1.80333 10 1.80333ZM10 0C7.28333 0 6.945 0.011667 5.87667 0.061667C2.24333 0.228334 0.226666 2.24333 0.0599996 5.87667C0.0116663 6.945 0 7.285 0 10C0 12.7167 0.0116663 13.0567 0.0599996 14.1233C0.226666 17.755 2.24333 19.7733 5.87667 19.94C6.945 19.9883 7.28333 20 10 20C12.7167 20 13.0567 19.9883 14.125 19.94C17.7517 19.7733 19.7767 17.7583 19.94 14.1233C19.9883 13.0567 20 12.7167 20 10C20 7.285 19.9883 6.945 19.94 5.87667C19.7767 2.24833 17.7583 0.226667 14.125 0.061667C13.0567 0.011667 12.7167 0 10 0ZM10 4.865C7.165 4.865 4.865 7.16333 4.865 10C4.865 12.8367 7.165 15.135 10 15.135C12.835 15.135 15.135 12.8367 15.135 10C15.135 7.165 12.835 4.865 10 4.865ZM10 13.3333C8.15833 13.3333 6.66667 11.8417 6.66667 10C6.66667 8.16 8.15833 6.66667 10 6.66667C11.84 6.66667 13.335 8.15833 13.335 10C13.335 11.8417 11.84 13.3333 10 13.3333ZM15.3367 3.46333C14.675 3.46333 14.1367 4 14.1367 4.66333C14.1367 5.325 14.6733 5.86333 15.3367 5.86333C16 5.86333 16.5383 5.32667 16.5383 4.66333C16.5383 4 16.0017 3.46333 15.3367 3.46333Z" fill="white"/>
</svg>
