<svg width="20" height="17" viewBox="0 0 20 17" fill="none" xmlns="http://www.w3.org/2000/svg">
<path d="M19.6875 1.99757C18.9632 2.33645 18.1847 2.56538 17.3677 2.66838C18.2016 2.14116 18.8421 1.30631 19.1436 0.311473C18.3631 0.799756 17.4987 1.15421 16.5786 1.34524C15.8419 0.51725 14.7922 0 13.6304 0C11.3998 0 9.59124 1.90735 9.59124 4.25999C9.59124 4.59389 9.62698 4.91907 9.69588 5.23085C6.33896 5.05321 3.36279 3.35714 1.37061 0.779716C1.02293 1.40889 0.823693 2.14064 0.823693 2.9214C0.823693 4.39943 1.53678 5.70335 2.62057 6.46729C1.95848 6.44517 1.33567 6.25351 0.79111 5.93446C0.790651 5.95222 0.790651 5.97007 0.790651 5.98804C0.790651 8.05205 2.18295 9.77376 4.03073 10.1654C3.69181 10.2628 3.33497 10.3148 2.96661 10.3148C2.70635 10.3148 2.45336 10.288 2.20668 10.2384C2.72072 11.9308 4.21234 13.1625 5.97989 13.1967C4.59753 14.3394 2.85597 15.0205 0.963508 15.0205C0.637482 15.0205 0.315985 15.0003 0 14.9609C1.78753 16.1697 3.91063 16.875 6.19163 16.875C13.621 16.875 17.6838 10.3836 17.6838 4.75388C17.6838 4.56918 17.6799 4.38551 17.6721 4.20268C18.4612 3.60216 19.1459 2.85193 19.6874 1.99757H19.6875Z" fill="white"/>
</svg>
